<?xml version="1.0" standalone="yes"?>
<svg xmlns="http://www.w3.org/2000/svg" width="130" height="125">
<path style="fill:#ffffff; stroke:none;" d="M0 0L0 125L130 125L130 0L0 0z"/>
<path style="fill:#f9bcbc; stroke:none;" d="M58.6667 2.33334C58.2222 2.77779 59.2778 2.72221 59.3333 2.66666C59.7778 2.22224 58.7222 2.27777 58.6667 2.33334z"/>
<path style="fill:#f59595; stroke:none;" d="M60 2C61.2483 2.6848 61.5484 2.74879 63 3C61.7517 2.31521 61.4516 2.25121 60 2z"/>
<path style="fill:#f16868; stroke:none;" d="M63.6667 2.33334C63.2223 2.77774 64.2778 2.72223 64.3333 2.66666C64.7778 2.2222 63.7222 2.2778 63.6667 2.33334z"/>
<path style="fill:#ee4949; stroke:none;" d="M7 118C15.6933 116.314 26.1321 112.004 35 112.564C41.1886 112.955 47.8177 117.622 54 119.101C67.5611 122.346 82.8245 120.335 95 113.688C103.235 109.191 110.407 102.795 115.641 95C137.682 62.1787 121.36 15.2392 83 4.42824C76.1695 2.5032 68.9969 2.14266 62 2.83102C54.6388 3.55521 48.6867 4.92581 42 8.24768C35.3281 11.5622 29.245 15.4647 24.1736 21.0147C18.4745 27.2516 14.3189 34.9815 11.7461 43C8.37035 53.5211 8.38918 64.204 10.4606 75C11.4067 79.9308 14.4913 84.9865 14.49 90C14.4875 99.6556 7.83751 108.468 7 118z"/>
<path style="fill:#f16f6f; stroke:none;" d="M70 2C71.2484 2.6848 71.5484 2.74879 73 3C71.7516 2.31519 71.4516 2.25121 70 2z"/>
<path style="fill:#f6a3a3; stroke:none;" d="M73 2C74.2484 2.6848 74.5484 2.74879 76 3C74.7516 2.31519 74.4516 2.25121 73 2z"/>
<path style="fill:#f38282; stroke:none;" d="M53.6667 3.33334C53.2222 3.7778 54.2778 3.72219 54.3333 3.66666C54.7777 3.22225 53.7222 3.27776 53.6667 3.33334z"/>
<path style="fill:#f7a8a8; stroke:none;" d="M79.6667 3.33334C79.2222 3.77777 80.2778 3.72221 80.3333 3.66666C80.7778 3.22221 79.7222 3.27779 79.6667 3.33334z"/>
<path style="fill:#f59393; stroke:none;" d="M49.6667 4.33334C49.2222 4.77778 50.2778 4.72221 50.3333 4.66666C50.7777 4.22227 49.7222 4.27776 49.6667 4.33334z"/>
<path style="fill:#f9c0c0; stroke:none;" d="M83.6667 4.33334C83.2222 4.77776 84.2778 4.72222 84.3333 4.66666C84.7778 4.22224 83.7222 4.27776 83.6667 4.33334z"/>
<path style="fill:#f6a3a3; stroke:none;" d="M47 5L48 6L47 5z"/>
<path style="fill:#f59696; stroke:none;" d="M86 5L87 6L86 5z"/>
<path style="fill:#f58f8f; stroke:none;" d="M45 6L46 7L45 6z"/>
<path style="fill:#f6a3a3; stroke:none;" d="M89 6L90 7L89 6z"/>
<path style="fill:#fac9c9; stroke:none;" d="M42 7L43 8L42 7z"/>
<path style="fill:#f48080; stroke:none;" d="M43 7L44 8L43 7z"/>
<path style="fill:#f69d9d; stroke:none;" d="M91 7L92 8L91 7z"/>
<path style="fill:#fac9c9; stroke:none;" d="M40 8L41 9L40 8z"/>
<path style="fill:#f48080; stroke:none;" d="M41 8L42 9L41 8z"/>
<path style="fill:#f59696; stroke:none;" d="M93 8L94 9L93 8z"/>
<path style="fill:#f48080; stroke:none;" d="M39 9L40 10L39 9z"/>
<path style="fill:#f69d9d; stroke:none;" d="M95 9L96 10L95 9z"/>
<path style="fill:#f59696; stroke:none;" d="M37 10L38 11L37 10z"/>
<path style="fill:#f9b9b9; stroke:none;" d="M97 10L98 11L97 10z"/>
<path style="fill:#f8b2b2; stroke:none;" d="M35 11L36 12L35 11z"/>
<path style="fill:#f38181; stroke:none;" d="M98 11L99 12L98 11z"/>
<path style="fill:#f7a9a9; stroke:none;" d="M100 12L101 13L100 12z"/>
<path style="fill:#f8baba; stroke:none;" d="M32 13L33 14L32 13z"/>
<path style="fill:#f38484; stroke:none;" d="M101 13L102 14L101 13z"/>
<path style="fill:#f69c9c; stroke:none;" d="M31 14L32 15L31 14z"/>
<path style="fill:#fac0c0; stroke:none;" d="M103 14L104 15L103 14z"/>
<path style="fill:#f48080; stroke:none;" d="M30 15L31 16L30 15z"/>
<path style="fill:#f6a2a2; stroke:none;" d="M104 15L105 16L104 15z"/>
<path style="fill:#f69b9b; stroke:none;" d="M105 16L106 17L105 16z"/>
<path style="fill:#f38686; stroke:none;" d="M106 17L107 18L106 17z"/>
<path style="fill:#f27777; stroke:none;" d="M62 20C64.8897 21.2129 67.8741 20.9983 71 21C68.1103 19.7871 65.1259 20.0017 62 20z"/>
<path style="fill:#f7abab; stroke:none;" d="M58.6667 21.3333C58.2222 21.7778 59.2778 21.7222 59.3333 21.6667C59.7777 21.2223 58.7222 21.2778 58.6667 21.3333z"/>
<path style="fill:#ffffff; stroke:none;" d="M40 32C47.3911 32.0204 56.9687 34.2656 55.6829 43.9985C55.3583 46.4549 53.9908 48.7654 53 51C58.0575 50.065 61.2167 51.8425 66 51.9606C68.4469 52.0211 70.5695 50.4534 73 50.3326C78.3829 50.0649 83.1256 55.7563 81.3819 61C78.8952 68.4786 70.3153 72.8908 67 80C58.8779 71.8779 47.4289 64.5651 52 52C46.9476 52.6385 42.1008 53 37 53L37 35C17.1753 55.7173 28.9243 94.7061 57 100.877C64.4944 102.524 72.6526 102.465 80 100.099C83.7024 98.9063 87.1442 96.1384 91 95.5887C95.1754 94.9935 100.026 96.8827 104 98C103.384 93.8318 100.764 89.2087 101.333 85C101.89 80.8771 104.78 77.013 105.957 73C108.091 65.7228 107.597 56.2221 105.43 49C97.7434 23.381 58.9194 9.11111 40 32z"/>
<path style="fill:#f8b3b3; stroke:none;" d="M73 21C74.2483 21.6848 74.5484 21.7488 76 22C74.7516 21.3152 74.4516 21.2512 73 21z"/>
<path style="fill:#f8b7b7; stroke:none;" d="M54.6667 22.3333C54.2222 22.7778 55.2778 22.7222 55.3333 22.6667C55.7778 22.2222 54.7222 22.2778 54.6667 22.3333z"/>
<path style="fill:#f7abab; stroke:none;" d="M79 22L80 23L79 22z"/>
<path style="fill:#f59393; stroke:none;" d="M111 22L112 23L111 22z"/>
<path style="fill:#f69f9f; stroke:none;" d="M52 23L53 24L52 23z"/>
<path style="fill:#f9c4c4; stroke:none;" d="M81 23L82 24L81 23z"/>
<path style="fill:#f48686; stroke:none;" d="M82 23L83 24L82 23z"/>
<path style="fill:#f7acac; stroke:none;" d="M112 23L113 24L112 23z"/>
<path style="fill:#f59494; stroke:none;" d="M21 24L22 25L21 24z"/>
<path style="fill:#f9b9b9; stroke:none;" d="M50 24L51 25L50 24z"/>
<path style="fill:#f6a0a0; stroke:none;" d="M84 24L85 25L84 24z"/>
<path style="fill:#fac9c9; stroke:none;" d="M113 24L114 25L113 24z"/>
<path style="fill:#f8b7b7; stroke:none;" d="M20 25L21 26L20 25z"/>
<path style="fill:#f58d8d; stroke:none;" d="M47 25L48 26L47 25z"/>
<path style="fill:#f7aeae; stroke:none;" d="M86 25L87 26L86 25z"/>
<path style="fill:#f8b6b6; stroke:none;" d="M46 26L47 27L46 26z"/>
<path style="fill:#f48080; stroke:none;" d="M114 26L115 27L114 26z"/>
<path style="fill:#f38282; stroke:none;" d="M44 27L45 28L44 27z"/>
<path style="fill:#f6a3a3; stroke:none;" d="M89 27L90 28L89 27z"/>
<path style="fill:#f69c9c; stroke:none;" d="M115 27L116 28L115 27z"/>
<path style="fill:#f59b9b; stroke:none;" d="M18 28L19 29L18 28z"/>
<path style="fill:#f7abab; stroke:none;" d="M43 28L44 29L43 28z"/>
<path style="fill:#f69a9a; stroke:none;" d="M92 29L93 30L92 29z"/>
<path style="fill:#f48686; stroke:none;" d="M17 30L18 31L17 30z"/>
<path style="fill:#f38282; stroke:none;" d="M40 30L41 31L40 30z"/>
<path style="fill:#f6a3a3; stroke:none;" d="M93 30L94 31L93 30z"/>
<path style="fill:#f8b2b2; stroke:none;" d="M117 30L118 31L117 30z"/>
<path style="fill:#fac6c6; stroke:none;" d="M16 31L17 32L16 31z"/>
<path style="fill:#f37d7d; stroke:none;" d="M39 31L40 32L39 31z"/>
<path style="fill:#f6a3a3; stroke:none;" d="M94 31L95 32L94 31z"/>
<path style="fill:#3385d9; stroke:none;" d="M38 53C41.2239 53 44.8628 53.4303 47.9992 52.5664C55.9665 50.3716 57.7635 38.3604 50.9414 33.7423C48.2603 31.9274 41.4044 30.6027 39.0278 33.6034C35.9782 37.4538 38 48.2503 38 53z"/>
<path style="fill:#f6a3a3; stroke:none;" d="M95 32L96 33L95 32z"/>
<path style="fill:#f59696; stroke:none;" d="M118 32L119 33L118 32z"/>
<path style="fill:#f8b8b8; stroke:none;" d="M15 33L16 34L15 33z"/>
<path style="fill:#b9d5f2; stroke:none;" d="M51 33L52 34L51 33z"/>
<path style="fill:#f6a3a3; stroke:none;" d="M96 33L97 34L96 33z"/>
<path style="fill:#c7def5; stroke:none;" d="M37 34L37 53C39.0196 48.1871 39.0196 38.8129 37 34z"/>
<path style="fill:#8dbbea; stroke:none;" d="M52 34L53 35L52 34z"/>
<path style="fill:#f6a3a3; stroke:none;" d="M97 34L98 35L97 34z"/>
<path style="fill:#f59797; stroke:none;" d="M119 34L120 35L119 34z"/>
<path style="fill:#f9bdbd; stroke:none;" d="M14 35L15 36L14 35z"/>
<path style="fill:#8cbaea; stroke:none;" d="M41 35L41 50C42.7404 45.8523 42.7404 39.1477 41 35z"/>
<path style="fill:#ffffff; stroke:none;" d="M42 35L42 50C53.626 49.363 53.626 35.637 42 35z"/>
<path style="fill:#c1daf4; stroke:none;" d="M47 35L48 36L47 35z"/>
<path style="fill:#8dbbea; stroke:none;" d="M53 35L54 36L53 35z"/>
<path style="fill:#f69a9a; stroke:none;" d="M98 35L99 36L98 35z"/>
<path style="fill:#fac5c5; stroke:none;" d="M35 36L36 37L35 36z"/>
<path style="fill:#8dbbea; stroke:none;" d="M49 36L50 37L49 36z"/>
<path style="fill:#f69f9f; stroke:none;" d="M120 36L121 37L120 36z"/>
<path style="fill:#fac4c4; stroke:none;" d="M13 37L14 38L13 37z"/>
<path style="fill:#f59595; stroke:none;" d="M34 37L35 38L34 37z"/>
<path style="fill:#f37e7e; stroke:none;" d="M13 38L14 39L13 38z"/>
<path style="fill:#f7a4a4; stroke:none;" d="M100 38L101 39L100 38z"/>
<path style="fill:#f7adad; stroke:none;" d="M121 38L122 39L121 38z"/>
<path style="fill:#f9bfbf; stroke:none;" d="M33 39L34 40L33 39z"/>
<path style="fill:#8cbaea; stroke:none;" d="M51 39L51 45C51.9511 42.7147 51.9511 41.2853 51 39z"/>
<path style="fill:#6ca7e4; stroke:none;" d="M55 39L55 45C55.9511 42.7147 55.9511 41.2853 55 39z"/>
<path style="fill:#f69d9d; stroke:none;" d="M12 40L13 41L12 40z"/>
<path style="fill:#f59090; stroke:none;" d="M32 40L33 41L32 40z"/>
<path style="fill:#f7aeae; stroke:none;" d="M102 41L103 42L102 41z"/>
<path style="fill:#f69898; stroke:none;" d="M122 41L123 42L122 41z"/>
<path style="fill:#fac7c7; stroke:none;" d="M11 42L12 43L11 42z"/>
<path style="fill:#f8b3b3; stroke:none;" d="M31 42L32 43L31 42z"/>
<path style="fill:#f48f8f; stroke:none;" d="M11 43L12 44L11 43z"/>
<path style="fill:#f6a0a0; stroke:none;" d="M103 43L104 44L103 43z"/>
<path style="fill:#f59a9a; stroke:none;" d="M123.333 43.6667C123.278 43.7222 123.222 44.7778 123.667 44.3333C123.722 44.2778 123.778 43.2222 123.333 43.6667z"/>
<path style="fill:#f59595; stroke:none;" d="M30 44L31 45L30 44z"/>
<path style="fill:#f6a3a3; stroke:none;" d="M10 45L10 48C10.6961 46.4463 10.6961 46.5537 10 45z"/>
<path style="fill:#d9e9f8; stroke:none;" d="M55.3333 45.6667C55.2778 45.7222 55.2222 46.7778 55.6667 46.3333C55.7222 46.2778 55.7778 45.2222 55.3333 45.6667z"/>
<path style="fill:#f48686; stroke:none;" d="M104 45L105 46L104 45z"/>
<path style="fill:#f9c4c4; stroke:none;" d="M104 46L105 47L104 46z"/>
<path style="fill:#f8b3b3; stroke:none;" d="M29 47L30 48L29 47z"/>
<path style="fill:#f59090; stroke:none;" d="M124.333 47.6667C124.278 47.7222 124.222 48.7778 124.667 48.3333C124.722 48.2778 124.778 47.2222 124.333 47.6667z"/>
<path style="fill:#8dbbea; stroke:none;" d="M49 48L50 49L49 48z"/>
<path style="fill:#f7abab; stroke:none;" d="M105 48L106 49L105 48z"/>
<path style="fill:#f69f9f; stroke:none;" d="M9 49L9 52C9.6961 50.4463 9.6961 50.5537 9 49z"/>
<path style="fill:#f9bbbb; stroke:none;" d="M28 49L28 52C28.6961 50.4463 28.6961 50.5537 28 49z"/>
<path style="fill:#c1daf4; stroke:none;" d="M47 49L48 50L47 49z"/>
<path style="fill:#8dbbea; stroke:none;" d="M53 49L54 50L53 49M52 50L53 51L52 50z"/>
<path style="fill:#f27171; stroke:none;" d="M55 50C56.2484 50.6848 56.5484 50.7488 58 51C56.7516 50.3152 56.4516 50.2512 55 50z"/>
<path style="fill:#ee4949; stroke:none;" d="M65 79C70.7493 76.1986 79.7846 67.3702 81.412 61C82.7501 55.7626 78.6265 49.9767 73 50.3364C70.0463 50.5252 67.4557 52.5436 65 54C60.7576 47.6108 49.9567 51.059 50.3225 59C50.6839 66.8436 60.5819 73.2014 65 79z"/>
<path style="fill:#f9c3c3; stroke:none;" d="M61.6667 50.3333C61.2222 50.7778 62.2778 50.7222 62.3333 50.6667C62.7778 50.2222 61.7222 50.2778 61.6667 50.3333z"/>
<path style="fill:#f59797; stroke:none;" d="M70 50L71 51L70 50z"/>
<path style="fill:#f6a3a3; stroke:none;" d="M76 50L77 51L76 50z"/>
<path style="fill:#b9d5f2; stroke:none;" d="M51 51L52 52L51 51z"/>
<path style="fill:#feffff; stroke:none;" d="M52 51L53 52L52 51z"/>
<path style="fill:#f6a3a3; stroke:none;" d="M53 51L54 52L53 51z"/>
<path style="fill:#f69a9a; stroke:none;" d="M63 51L64 52L63 51z"/>
<path style="fill:#f48686; stroke:none;" d="M68 51L69 52L68 51z"/>
<path style="fill:#f6a3a3; stroke:none;" d="M78 51L79 52L78 51z"/>
<path style="fill:#f7a6a6; stroke:none;" d="M106 51L106 54C106.696 52.4463 106.696 52.5537 106 51z"/>
<path style="fill:#f6a3a3; stroke:none;" d="M52 52L53 53L52 52M67 52L68 53L67 52z"/>
<path style="fill:#f48c8c; stroke:none;" d="M79 52L80 53L79 52z"/>
<path style="fill:#f9c2c2; stroke:none;" d="M125.333 52.6667C125.278 52.7222 125.222 53.7778 125.667 53.3333C125.722 53.2778 125.778 52.2222 125.333 52.6667z"/>
<path style="fill:#f48989; stroke:none;" d="M27 53L27 56C27.6961 54.4463 27.6961 54.5537 27 53z"/>
<path style="fill:#f6a3a3; stroke:none;" d="M51 53L52 54L51 53M65.6667 53.3333C65.2222 53.7778 66.2778 53.7222 66.3333 53.6667C66.7778 53.2222 65.7222 53.2778 65.6667 53.3333M80 53L81 54L80 53z"/>
<path style="fill:#f69999; stroke:none;" d="M125.333 54.6667C125.278 54.7222 125.222 55.7778 125.667 55.3333C125.722 55.2778 125.778 54.2222 125.333 54.6667z"/>
<path style="fill:#fad1d1; stroke:none;" d="M8 55L8 66C9.43088 62.59 9.43089 58.41 8 55z"/>
<path style="fill:#f49090; stroke:none;" d="M50 55L51 56L50 55M81 55L82 56L81 55z"/>
<path style="fill:#f6a3a3; stroke:none;" d="M107 56L107 66C108.346 62.793 108.346 59.207 107 56z"/>
<path style="fill:#f37a7a; stroke:none;" d="M125.333 56.6667C125.278 56.7222 125.222 57.7778 125.667 57.3333C125.722 57.2778 125.778 56.2222 125.333 56.6667z"/>
<path style="fill:#f59595; stroke:none;" d="M50 61L51 62L50 61z"/>
<path style="fill:#f48c8c; stroke:none;" d="M81 61L82 62L81 61z"/>
<path style="fill:#f9c5c5; stroke:none;" d="M81 62L82 63L81 62z"/>
<path style="fill:#f16d6d; stroke:none;" d="M125 62L125 67C125.83 64.9695 125.83 64.0305 125 62z"/>
<path style="fill:#f58e8e; stroke:none;" d="M51 63L52 64L51 63z"/>
<path style="fill:#f9bfbf; stroke:none;" d="M52 65L53 66L52 65z"/>
<path style="fill:#f7acac; stroke:none;" d="M53 66L54 67L53 66z"/>
<path style="fill:#f16666; stroke:none;" d="M107.333 66.6667C107.278 66.7223 107.222 67.7778 107.667 67.3333C107.722 67.2778 107.778 66.2222 107.333 66.6667z"/>
<path style="fill:#f69f9f; stroke:none;" d="M27.3333 67.6667C27.2778 67.7222 27.2222 68.7778 27.6667 68.3333C27.7222 68.2778 27.7778 67.2222 27.3333 67.6667z"/>
<path style="fill:#f6a3a3; stroke:none;" d="M54 67L55 68L54 67z"/>
<path style="fill:#f69f9f; stroke:none;" d="M125 67L125 70C125.696 68.4463 125.696 68.5537 125 67z"/>
<path style="fill:#f27c7c; stroke:none;" d="M9 68L9 71C9.6961 69.4463 9.6961 69.5537 9 68z"/>
<path style="fill:#f7a4a4; stroke:none;" d="M55 68L56 69L55 68z"/>
<path style="fill:#f7a0a0; stroke:none;" d="M56 69L57 70L56 69z"/>
<path style="fill:#fac7c7; stroke:none;" d="M75 69L76 70L75 69z"/>
<path style="fill:#f69c9c; stroke:none;" d="M57 70L58 71L57 70z"/>
<path style="fill:#f9baba; stroke:none;" d="M74 70L75 71L74 70z"/>
<path style="fill:#fce2e2; stroke:none;" d="M125.333 70.6667C125.278 70.7223 125.222 71.7778 125.667 71.3333C125.722 71.2778 125.778 70.2222 125.333 70.6667z"/>
<path style="fill:#f8bcbc; stroke:none;" d="M9 71L9 74C9.6961 72.4463 9.6961 72.5537 9 71z"/>
<path style="fill:#f7b0b0; stroke:none;" d="M28 71L28 74C28.6961 72.4463 28.6961 72.5537 28 71z"/>
<path style="fill:#f69898; stroke:none;" d="M58 71L59 72L58 71z"/>
<path style="fill:#f7acac; stroke:none;" d="M73 71L74 72L73 71z"/>
<path style="fill:#f1d145; stroke:none;" d="M81.0046 71.7431C68.9984 76.3536 76.3383 96.4172 88.956 90.9907C99.6567 86.3887 93.3309 67.0096 81.0046 71.7431z"/>
<path style="fill:#f8e79e; stroke:none;" d="M88 71L89 72L88 71z"/>
<path style="fill:#f16666; stroke:none;" d="M106.333 71.6667C106.278 71.7222 106.222 72.7778 106.667 72.3333C106.722 72.2778 106.778 71.2222 106.333 71.6667z"/>
<path style="fill:#f59393; stroke:none;" d="M59 72L60 73L59 72z"/>
<path style="fill:#f69f9f; stroke:none;" d="M72 72L73 73L72 72z"/>
<path style="fill:#f7e69b; stroke:none;" d="M90 72L91 73L90 72z"/>
<path style="fill:#f58f8f; stroke:none;" d="M60 73L61 74L60 73z"/>
<path style="fill:#f59292; stroke:none;" d="M71 73L72 74L71 73z"/>
<path style="fill:#f9eaa9; stroke:none;" d="M77 73L78 74L77 73z"/>
<path style="fill:#f48b8b; stroke:none;" d="M61 74L62 75L61 74z"/>
<path style="fill:#f38484; stroke:none;" d="M70 74L71 75L70 74z"/>
<path style="fill:#f9eaac; stroke:none;" d="M76 74L77 75L76 74z"/>
<path style="fill:#f37c7c; stroke:none;" d="M105.333 74.6667C105.278 74.7223 105.222 75.7778 105.667 75.3333C105.722 75.2778 105.778 74.2222 105.333 74.6667z"/>
<path style="fill:#facccc; stroke:none;" d="M124.333 74.6667C124.278 74.7223 124.222 75.7778 124.667 75.3333C124.722 75.2778 124.778 74.2222 124.333 74.6667z"/>
<path style="fill:#f8b5b5; stroke:none;" d="M10.3333 75.6667C10.2778 75.7222 10.2222 76.7778 10.6667 76.3333C10.7222 76.2778 10.7778 75.2222 10.3333 75.6667z"/>
<path style="fill:#f8b8b8; stroke:none;" d="M29 75L30 76L29 75z"/>
<path style="fill:#f38686; stroke:none;" d="M62 75L63 76L62 75z"/>
<path style="fill:#ffffff; stroke:none;" d="M82.1474 76.0432C75.7405 79.6213 81.0422 91.1411 87.5664 86.8164C92.8392 83.321 88.7738 72.3426 82.1474 76.0432z"/>
<path style="fill:#f37e7e; stroke:none;" d="M63 76L64 77L63 76z"/>
<path style="fill:#f6e28c; stroke:none;" d="M80 76L81 77L80 76z"/>
<path style="fill:#f9eaac; stroke:none;" d="M89 77L90 78L89 77z"/>
<path style="fill:#f3d75c; stroke:none;" d="M94 77L94 85C95.1614 82.2301 95.1614 79.7699 94 77z"/>
<path style="fill:#f59696; stroke:none;" d="M104 77L105 78L104 77z"/>
<path style="fill:#f6a3a3; stroke:none;" d="M123.333 77.6667C123.278 77.7222 123.222 78.7778 123.667 78.3333C123.722 78.2778 123.778 77.2222 123.333 77.6667z"/>
<path style="fill:#f59393; stroke:none;" d="M30 78L31 79L30 78z"/>
<path style="fill:#f5df7e; stroke:none;" d="M74 78L74 84C74.9511 81.7147 74.9511 80.2853 74 78z"/>
<path style="fill:#f9c0c0; stroke:none;" d="M11.3333 79.6667C11.2778 79.7222 11.2222 80.7778 11.6667 80.3333C11.7222 80.2778 11.7778 79.2222 11.3333 79.6667z"/>
<path style="fill:#fac4c4; stroke:none;" d="M66 79L67 80L66 79z"/>
<path style="fill:#f5df7c; stroke:none;" d="M78 79L78 83C78.7102 81.2405 78.7102 80.7595 78 79z"/>
<path style="fill:#f9ebae; stroke:none;" d="M90 79L90 84C90.8299 81.9695 90.8299 81.0305 90 79z"/>
<path style="fill:#f7aeae; stroke:none;" d="M103 79L104 80L103 79z"/>
<path style="fill:#f7adad; stroke:none;" d="M31 80L32 81L31 80z"/>
<path style="fill:#f7a8a8; stroke:none;" d="M102 81L103 82L102 81z"/>
<path style="fill:#f8b2b2; stroke:none;" d="M122 81L123 82L122 81z"/>
<path style="fill:#f38888; stroke:none;" d="M12 82L13 83L12 82z"/>
<path style="fill:#f59595; stroke:none;" d="M32 82L33 83L32 82z"/>
<path style="fill:#fac7c7; stroke:none;" d="M12 83L13 84L12 83z"/>
<path style="fill:#f9bebe; stroke:none;" d="M33 83L34 84L33 83z"/>
<path style="fill:#f38181; stroke:none;" d="M101 83L102 84L101 83z"/>
<path style="fill:#f48888; stroke:none;" d="M121 83L122 84L121 83z"/>
<path style="fill:#fad1d1; stroke:none;" d="M100.333 84.6667C100.278 84.7223 100.222 85.7778 100.667 85.3333C100.722 85.2778 100.778 84.2222 100.333 84.6667z"/>
<path style="fill:#fac5c5; stroke:none;" d="M121 84L122 85L121 84z"/>
<path style="fill:#f8b0b0; stroke:none;" d="M13 85L14 86L13 85z"/>
<path style="fill:#f48a8a; stroke:none;" d="M34 85L35 86L34 85z"/>
<path style="fill:#f9eaac; stroke:none;" d="M89 85L90 86L89 85z"/>
<path style="fill:#f8b3b3; stroke:none;" d="M35 86L36 87L35 86z"/>
<path style="fill:#f6e38e; stroke:none;" d="M75 86L76 87L75 86z"/>
<path style="fill:#f8afaf; stroke:none;" d="M120 86L121 87L120 86z"/>
<path style="fill:#f69e9e; stroke:none;" d="M14 87L15 88L14 87z"/>
<path style="fill:#f8e79f; stroke:none;" d="M93 87L94 88L93 87z"/>
<path style="fill:#f9c0c0; stroke:none;" d="M101.333 87.6667C101.278 87.7222 101.222 88.7778 101.667 88.3333C101.722 88.2778 101.778 87.2222 101.333 87.6667z"/>
<path style="fill:#f9eaac; stroke:none;" d="M76 88L77 89L76 88z"/>
<path style="fill:#f69a9a; stroke:none;" d="M119 88L120 89L119 88z"/>
<path style="fill:#f9eaa9; stroke:none;" d="M77 89L78 90L77 89z"/>
<path style="fill:#f7e69b; stroke:none;" d="M90 90L91 91L90 90z"/>
<path style="fill:#f8b4b4; stroke:none;" d="M102.333 90.6667C102.278 90.7222 102.222 91.7778 102.667 91.3333C102.722 91.2778 102.778 90.2222 102.333 90.6667z"/>
<path style="fill:#f6a3a3; stroke:none;" d="M118 90L119 91L118 90z"/>
<path style="fill:#f8acac; stroke:none;" d="M14 91L15 92L14 91z"/>
<path style="fill:#f8e79e; stroke:none;" d="M88 91L89 92L88 91z"/>
<path style="fill:#f9c0c0; stroke:none;" d="M117 92L118 93L117 92z"/>
<path style="fill:#fac9c9; stroke:none;" d="M42 93L43 94L42 93z"/>
<path style="fill:#f48888; stroke:none;" d="M116 93L117 94L116 93z"/>
<path style="fill:#f38484; stroke:none;" d="M13.3333 94.6667C13.2778 94.7222 13.2222 95.7778 13.6667 95.3333C13.7222 95.2778 13.7778 94.2222 13.3333 94.6667z"/>
<path style="fill:#f69f9f; stroke:none;" d="M43 94L44 95L43 94z"/>
<path style="fill:#f7abab; stroke:none;" d="M103 94L104 95L103 94z"/>
<path style="fill:#f8afaf; stroke:none;" d="M89 95L90 96L89 95z"/>
<path style="fill:#f59a9a; stroke:none;" d="M91 95C92.2484 95.6848 92.5484 95.7488 94 96C92.7517 95.3152 92.4516 95.2512 91 95z"/>
<path style="fill:#f8b3b3; stroke:none;" d="M115 95L116 96L115 95z"/>
<path style="fill:#f7a9a9; stroke:none;" d="M46 96L47 97L46 96z"/>
<path style="fill:#f9c4c4; stroke:none;" d="M87 96L88 97L87 96z"/>
<path style="fill:#f8aeae; stroke:none;" d="M96 96C97.2484 96.6848 97.5484 96.7488 99 97C97.7517 96.3152 97.4516 96.2512 96 96z"/>
<path style="fill:#f48888; stroke:none;" d="M114 96L115 97L114 96z"/>
<path style="fill:#f59494; stroke:none;" d="M12.3333 97.6667C12.2778 97.7222 12.2222 98.7778 12.6667 98.3333C12.7222 98.2778 12.7778 97.2222 12.3333 97.6667z"/>
<path style="fill:#f48080; stroke:none;" d="M47 97L48 98L47 97z"/>
<path style="fill:#f48686; stroke:none;" d="M86 97L87 98L86 97z"/>
<path style="fill:#f6a0a0; stroke:none;" d="M100 97C101.248 97.6848 101.548 97.7488 103 98C101.752 97.3152 101.452 97.2512 100 97z"/>
<path style="fill:#f17272; stroke:none;" d="M104.333 97.6667C104.278 97.7222 104.222 98.7778 104.667 98.3333C104.722 98.2778 104.778 97.2222 104.333 97.6667z"/>
<path style="fill:#f37e7e; stroke:none;" d="M49 98L50 99L49 98z"/>
<path style="fill:#f8baba; stroke:none;" d="M50 98L51 99L50 98z"/>
<path style="fill:#f6a3a3; stroke:none;" d="M84 98L85 99L84 98z"/>
<path style="fill:#f9baba; stroke:none;" d="M113 98L114 99L113 98z"/>
<path style="fill:#f69d9d; stroke:none;" d="M52 99L53 100L52 99z"/>
<path style="fill:#f8bbbb; stroke:none;" d="M81 99L82 100L81 99z"/>
<path style="fill:#f38181; stroke:none;" d="M82 99L83 100L82 99z"/>
<path style="fill:#f69c9c; stroke:none;" d="M112 99L113 100L112 99z"/>
<path style="fill:#f37e7e; stroke:none;" d="M54 100L55 101L54 100z"/>
<path style="fill:#f59898; stroke:none;" d="M79 100L80 101L79 100z"/>
<path style="fill:#f48d8d; stroke:none;" d="M111 100L112 101L111 100z"/>
<path style="fill:#f16868; stroke:none;" d="M11.3333 101.667C11.2778 101.722 11.2222 102.778 11.6667 102.333C11.7222 102.278 11.7778 101.222 11.3333 101.667z"/>
<path style="fill:#f6a0a0; stroke:none;" d="M58 101C59.2483 101.685 59.5484 101.749 61 102C59.7516 101.315 59.4516 101.251 58 101z"/>
<path style="fill:#f9bdbd; stroke:none;" d="M73 101C74.2484 101.685 74.5484 101.749 76 102C74.7517 101.315 74.4516 101.251 73 101z"/>
<path style="fill:#f37e7e; stroke:none;" d="M110 101L111 102L110 101z"/>
<path style="fill:#f27777; stroke:none;" d="M63 102C65.8897 103.213 68.8741 102.998 72 103C69.1103 101.787 66.1259 102.002 63 102z"/>
<path style="fill:#f48080; stroke:none;" d="M108 103L109 104L108 103z"/>
<path style="fill:#f16c6c; stroke:none;" d="M10.3333 104.667C10.2778 104.722 10.2222 105.778 10.6667 105.333C10.7222 105.278 10.7778 104.222 10.3333 104.667z"/>
<path style="fill:#f69898; stroke:none;" d="M107 104L108 105L107 104z"/>
<path style="fill:#f6a3a3; stroke:none;" d="M106 105L107 106L106 105M105 106L106 107L105 106z"/>
<path style="fill:#f27070; stroke:none;" d="M9.33333 107.667C9.27778 107.722 9.22221 108.778 9.66667 108.333C9.72223 108.278 9.77777 107.222 9.33333 107.667z"/>
<path style="fill:#f8b3b3; stroke:none;" d="M104 107L105 108L104 107z"/>
<path style="fill:#f48787; stroke:none;" d="M101 109L102 110L101 109z"/>
<path style="fill:#f7abab; stroke:none;" d="M8 110L9 111L8 110z"/>
<path style="fill:#f6a3a3; stroke:none;" d="M100 110L101 111L100 110z"/>
<path style="fill:#f48080; stroke:none;" d="M98 111L99 112L98 111z"/>
<path style="fill:#f8baba; stroke:none;" d="M33.6667 112.333C33.2222 112.778 34.2778 112.722 34.3333 112.667C34.7778 112.222 33.7222 112.278 33.6667 112.333z"/>
<path style="fill:#f38383; stroke:none;" d="M37 112L38 113L37 112z"/>
<path style="fill:#f8b3b3; stroke:none;" d="M97 112L98 113L97 112M7 113L8 114L7 113z"/>
<path style="fill:#f7aeae; stroke:none;" d="M28.6667 113.333C28.2222 113.778 29.2778 113.722 29.3333 113.667C29.7778 113.222 28.7222 113.278 28.6667 113.333z"/>
<path style="fill:#f59393; stroke:none;" d="M95 113L96 114L95 113z"/>
<path style="fill:#f6a1a1; stroke:none;" d="M23.6667 114.333C23.2222 114.778 24.2778 114.722 24.3333 114.667C24.7778 114.222 23.7222 114.278 23.6667 114.333z"/>
<path style="fill:#f8b7b7; stroke:none;" d="M40 114L41 115L40 114z"/>
<path style="fill:#f69a9a; stroke:none;" d="M93 114L94 115L93 114z"/>
<path style="fill:#f69898; stroke:none;" d="M18.6667 115.333C18.2222 115.778 19.2778 115.722 19.3333 115.667C19.7778 115.222 18.7222 115.278 18.6667 115.333z"/>
<path style="fill:#fce2e2; stroke:none;" d="M20.6667 115.333C20.2222 115.778 21.2778 115.722 21.3333 115.667C21.7778 115.222 20.7222 115.278 20.6667 115.333z"/>
<path style="fill:#f7adad; stroke:none;" d="M42 115L43 116L42 115z"/>
<path style="fill:#f7a1a1; stroke:none;" d="M91 115L92 116L91 115z"/>
<path style="fill:#f8b5b5; stroke:none;" d="M6 116C6.40567 118.092 6.21666 118.02 8 119C7.30866 117.612 7.01544 117.139 6 116z"/>
<path style="fill:#f8b1b1; stroke:none;" d="M14 116C15.2484 116.685 15.5484 116.749 17 117C15.7516 116.315 15.4516 116.251 14 116z"/>
<path style="fill:#f59595; stroke:none;" d="M45 116L46 117L45 116z"/>
<path style="fill:#f8afaf; stroke:none;" d="M89 116L90 117L89 116z"/>
<path style="fill:#f6a2a2; stroke:none;" d="M9.66667 117.333C9.22223 117.778 10.2778 117.722 10.3333 117.667C10.7778 117.222 9.72222 117.278 9.66667 117.333z"/>
<path style="fill:#f8b8b8; stroke:none;" d="M47 117L48 118L47 117z"/>
<path style="fill:#f37e7e; stroke:none;" d="M48 117L49 118L48 117z"/>
<path style="fill:#f48484; stroke:none;" d="M86 117L87 118L86 117z"/>
<path style="fill:#fac5c5; stroke:none;" d="M87 117L88 118L87 117z"/>
<path style="fill:#f38383; stroke:none;" d="M50.6667 118.333C50.2222 118.778 51.2778 118.722 51.3333 118.667C51.7778 118.222 50.7222 118.278 50.6667 118.333z"/>
<path style="fill:#f7a9a9; stroke:none;" d="M83.6667 118.333C83.2222 118.778 84.2778 118.722 84.3333 118.667C84.7778 118.222 83.7222 118.278 83.6667 118.333z"/>
<path style="fill:#fac7c7; stroke:none;" d="M53 119L54 120L53 119z"/>
<path style="fill:#f16a6a; stroke:none;" d="M54.6667 119.333C54.2222 119.778 55.2778 119.722 55.3333 119.667C55.7778 119.222 54.7222 119.278 54.6667 119.333z"/>
<path style="fill:#fac9c9; stroke:none;" d="M80.6667 119.333C80.2222 119.778 81.2778 119.722 81.3333 119.667C81.7778 119.222 80.7222 119.278 80.6667 119.333z"/>
<path style="fill:#f8b8b8; stroke:none;" d="M58.6667 120.333C58.2222 120.778 59.2778 120.722 59.3333 120.667C59.7778 120.222 58.7222 120.278 58.6667 120.333z"/>
<path style="fill:#f16b6b; stroke:none;" d="M60 120C62.3316 120.985 64.4567 120.981 67 121C64.6684 120.015 62.5433 120.019 60 120z"/>
<path style="fill:#f16f6f; stroke:none;" d="M69 120C70.2484 120.685 70.5484 120.749 72 121C70.7516 120.315 70.4516 120.251 69 120z"/>
<path style="fill:#f69d9d; stroke:none;" d="M72 120C73.2483 120.685 73.5484 120.749 75 121C73.7516 120.315 73.4516 120.251 72 120z"/>
<path style="fill:#fce0e0; stroke:none;" d="M75.6667 120.333C75.2222 120.778 76.2778 120.722 76.3333 120.667C76.7778 120.222 75.7222 120.278 75.6667 120.333z"/>
</svg>
